<?xml version="1.0" encoding="UTF-8" standalone="no"?>
<!DOCTYPE svg PUBLIC "-//W3C//DTD SVG 1.1//EN" "http://www.w3.org/Graphics/SVG/1.1/DTD/svg11.dtd">
<svg width="100%" height="100%" viewBox="0 0 200 200" version="1.1" xmlns="http://www.w3.org/2000/svg" xmlns:xlink="http://www.w3.org/1999/xlink" xml:space="preserve" xmlns:serif="http://www.serif.com/" style="fill-rule:evenodd;clip-rule:evenodd;stroke-linejoin:round;stroke-miterlimit:2; fill: var(--primary-text-color);">
    <g transform="matrix(0.652005,0,0,0.611255,-209.722,-235.759)">
        <path d="M460,426.667C460,411.949 448.798,400 435,400L385,400C371.202,400 360,411.949 360,426.667L360,533.333C360,548.051 371.202,560 385,560L435,560C448.798,560 460,548.051 460,533.333L460,426.667Z"/>
    </g>
    <g transform="matrix(0.652005,0,0,0.652005,-209.722,-265.099)">
        <path d="M460,625C460,611.202 448.798,600 435,600L385,600C371.202,600 360,611.202 360,625L360,675C360,688.798 371.202,700 385,700L435,700C448.798,700 460,688.798 460,675L460,625Z"/>
    </g>
    <g transform="matrix(0.652005,0,0,0.611255,-216.242,-236.574)">
        <path d="M600,566.667C600,551.949 588.798,540 575,540L525,540C511.202,540 500,551.949 500,566.667L500,673.333C500,688.051 511.202,700 525,700L575,700C588.798,700 600,688.051 600,673.333L600,566.667Z"/>
    </g>
    <g transform="matrix(0.461037,-0.461037,0.461037,0.461037,-318.676,87.4469)">
        <path d="M600,425C600,411.202 588.798,400 575,400L525,400C511.202,400 500,411.202 500,425L500,475C500,488.798 511.202,500 525,500L575,500C588.798,500 600,488.798 600,475L600,425Z"/>
    </g>
</svg>
